<svg xmlns="http://www.w3.org/2000/svg" viewBox="0 0 612 612">
  <g sodipodi:docname="twitter_bootstrap_logo.svg" inkscape:version="0.48.1 r9760" xmlns:svg="http://www.w3.org/2000/svg" xmlns:sodipodi="http://sodipodi.sourceforge.net/DTD/sodipodi-0.dtd" xmlns:rdf="http://www.w3.org/1999/02/22-rdf-syntax-ns#" xmlns:dc="http://purl.org/dc/elements/1.1/" xmlns:cc="http://creativecommons.org/ns#" xmlns:inkscape="http://www.inkscape.org/namespaces/inkscape">
    <path fill="#FFFFFF" d="M612 510c0 56.1-45.9 102-102 102H102C45.9 612 0 566.1 0 510V102C0 45.9 45.9 0 102 0h408c56.1 0 102 45.9 102 102v408z"/>
<!--    <path fill="#FF0800" d="M166.3 133h173.5c32 0 57.7 7.3 77 22s29 36.8 29 66.5c0 18-4.4 33.4-13.2 46.2-8.8 12.8-21.4 22.8-37.8 29.8v1c22 4.7 38.7 15.1 50 31.2 11.3 16.2 17 36.4 17 60.8 0 14-2.5 27.1-7.5 39.2-5 12.2-12.8 22.7-23.5 31.5s-24.3 15.8-41 21-36.5 7.8-59.5 7.8h-164V133zm62.5 149.5h102c15 0 27.5-4.2 37.5-12.8s15-20.8 15-36.8c0-18-4.5-30.7-13.5-38s-22-11-39-11h-102v98.6zm0 156.5h110.5c19 0 33.8-4.9 44.2-14.8 10.5-9.8 15.8-23.8 15.8-41.8 0-17.7-5.2-31.2-15.8-40.8s-25.2-14.2-44.2-14.2H228.8V439z"/>-->
<!--    <text stroke="#000" transform="matrix(25.942304318169793,0,0,19.644798386773672,-10129.565671617009,-3502.2256255044313) " xml:space="preserve" text-anchor="start" font-family="Helvetica, Arial, sans-serif" font-size="24" id="svg_4" y="202.517676" x="393.272486" stroke-opacity="null" stroke-width="0" fill="#3f007f">C</text>-->
    <text stroke="#000" transform="matrix(11.830691385557609,0,0,12.552236525902355,-34.24550214230172,-22.937766162592265) " xml:space="preserve" text-anchor="start" font-family="'Shadows Into Light', serif" font-size="24" id="svg_1" y="32.503816" x="3.254637" stroke-width="0" fill="#7f00ff">Code</text>

  </g>
</svg>
